<svg width="37" height="38" viewBox="0 0 37 38" fill="none" xmlns="http://www.w3.org/2000/svg">
<path d="M31.5847 26.2593C33.2386 27.1769 33.8574 29.2885 32.6495 30.7438C30.496 33.3383 27.655 35.3088 24.4213 36.4087C20.099 37.8788 15.3843 37.6885 11.1945 35.8746C7.00482 34.0608 3.63968 30.7532 1.75386 26.5954C-0.131964 22.4375 -0.403594 17.7269 0.991815 13.3798C2.38722 9.03279 5.34987 5.36031 9.30335 3.07691C13.2568 0.793517 17.9184 0.0625063 22.381 1.02611C26.8437 1.98971 30.7883 4.57901 33.4474 8.29022C35.4367 11.0667 36.6001 14.3226 36.8411 17.6857C36.9763 19.5722 35.2441 20.9292 33.3652 20.7127V20.7127C31.4863 20.4962 30.1907 18.7706 29.8482 16.9106C29.5432 15.2543 28.8768 13.6709 27.8798 12.2794C26.2112 9.9505 23.7358 8.32565 20.9354 7.72097C18.135 7.11629 15.2098 7.57501 12.7289 9.0079C10.248 10.4408 8.38887 12.7453 7.51321 15.4732C6.63756 18.2011 6.80802 21.1571 7.99141 23.7663C9.17481 26.3754 11.2865 28.451 13.9157 29.5892C16.5448 30.7274 19.5034 30.8469 22.2157 29.9243C23.8364 29.3731 25.2998 28.4734 26.5119 27.3041C27.873 25.9909 29.9309 25.3418 31.5847 26.2593V26.2593Z" fill="url(#paint0_angular_220_7472)"/>
<defs>
<radialGradient id="paint0_angular_220_7472" cx="0" cy="0" r="1" gradientUnits="userSpaceOnUse" gradientTransform="translate(23.6454 21.8546) rotate(29.0212) scale(12.5039)">
<stop stop-color="#B978F5"/>
<stop offset="1" stop-color="white"/>
</radialGradient>
</defs>
</svg>
